/* XPM */
static char *_724_a0b4a6dbf715190069b62b5b790dc45827ea51a4c0ab3a9c33f9665ffdcf8172[] = {
/* columns rows colors chars-per-pixel */
"48 48 66 1 ",
"  c #5D20B5190DD1",
". c #5E5AB5AC1025",
"X c #6169B6971452",
"o c #6464B780192B",
"O c #6649B8FF1C47",
"+ c #6868B9791E9F",
"@ c #6B8EBB362436",
"# c #6F26BCBC294E",
"$ c #7272BDEC2DB9",
"% c #74F5BF1431C7",
"& c #76A1C0C0358B",
"* c #78B8C0C03676",
"= c #7C4BC2483CAA",
"- c #7ED4C3C34096",
"; c #8222C5654545",
": c #852FC6B14A5F",
"> c #8888C7C74E4E",
", c #8585C8C84B4B",
"< c #8989C8C84ECF",
"1 c #8B0BC7C750D1",
"2 c #8787C9C95050",
"3 c #8CACC9A954B4",
"4 c #8F39CC215959",
"5 c #9262CC9C5CED",
"6 c #95F2CE4262A8",
"7 c #98CBCE9B66CD",
"8 c #9A1ACFCF6868",
"9 c #9D2FD13E6CC8",
"0 c #9F9FD3D37272",
"q c #A25CD3EA74D1",
"w c #A60CD5D579AC",
"e c #A929D6967EFF",
"r c #ABABD7D7822C",
"t c #AD7ED91E84CA",
"y c #AFAFD9D98888",
"u c #B320DBA48CE8",
"i c #B660DD8792E8",
"p c #BA64DEDE9741",
"a c #BB90DF349A9A",
"s c #BE13E10B9D9D",
"d c #BFBFE17AA107",
"f c #C2DFE2FFA46B",
"g c #C68BE4D0AAE5",
"h c #C962E618AEE1",
"j c #CC76E767B388",
"k c #CDCDE8E8B636",
"l c #CF4FE8E8B8B8",
"z c #D0D0E8E8B7B7",
"x c #D3B9EAD0BDBD",
"c c #D62BEC24C1DE",
"v c #D918ECECC605",
"b c #DCDCEF00CBA6",
"n c #DF89F0F0CF79",
"m c #DFDFF0F0D0D0",
"M c #E0E0EFEFCFCF",
"N c #E0E0F1F1CFCF",
"B c #E312F1C1D494",
"V c #E6E6F3B8DAB2",
"C c #E9FEF54ADE33",
"Z c #EDB5F6D4E469",
"A c #F0F0F7F7E5E5",
"S c #F171F7F7E9A9",
"D c #F3D5F9D1ED14",
"F c #F6CEFB49F28F",
"G c #F9F9FCB1F68A",
"H c #FFD2FFE2FF9F",
/* pixels */
"HHHHHHHHHHHHHHHHHHGSVMbBCDHHHHHHHHHHHHHHHHHHHHHH",
"HHHHHHHHHHHHHHHDcu5=$@@#$8DHHHHHHHHHHHHHHHHHHHHH",
"HHHHHHHHHHHHHZp:O     .  1FHHHHHHHHHHHHHHHHHHHHH",
"HHHHHHHHHHHFs=.   X .... 0HHHHHHHHHHHHHHHHHHHHHH",
"HHHHHHHHHHB6X .. X ..... iHHHHHHHHHHHHHHHHHHHHHH",
"HHHHHHHHHx= .....   ... XjHHHHHHHHHHHHHHHHHHHHHH",
"HHHHHHHHh# ......       OmHHHHHHHHHHHHHHHHHHHHHH",
"HHHHHHHj@ ...... X&5eiputSHHHHHHHHHHHHHHHHHHHHHH",
"HHHHHHb%  .... o5gZGHHGHHHHHHHHHHHHHHHHHHHHHHHHH",
"HHHHHA: ..... -jGGNs0545hHHHHHHHHHHHHHHHHHHHHHHH",
"HHHHHr. .....0SGz5@     yHHHHHHHHHHHHHHHHHHHHHHH",
"HHHHv@ .....rFZ8O     . fHHHHHHHHHHHHHHHHHHHHHHH",
"HHHG6  ....wGm;. ... X ocHHHHHHHHHHHHHHHHHHHHHHH",
"HHHxO ... 3DB-         $VHHHHHHHHHHHHHHHHHHHHHHH",
"HHH0 . . #bS1 ....X    -DHHHHHHHHHHHHHHHHHHHHHHH",
"HHC$  .. tHt.....  X#;;wHvtSHHHHHHHHHHHHHHHHHHHH",
"HHg. .. $Vb@ .. . %aVFFGB=.wGHHHHHHHHHHHHHHHHHHH",
"HH9 ... qHq .... 5VHHHHZ> .XuGHHHHHHHHHHHHHHHHHH",
"HS- .. oxC% ... 1ZHHHHS5 X  OaGHHHHHHHHHHHHHHHHH",
"HB@. . &SgX... #bHHHHG8 .  . @vHHHHHHHHHHGFHHHHH",
"HxX... 5Hq ... 0HHHHGrX  XX  6SHHHHHHDBku66DHHHH",
"Hf.... eF< .. olHHHGiX X    3AHGDBhbD7@X  #CHHHH",
"Hp.... pS=  . %CHHHdo . . X;CZu5=@ wG<  . @nHHHH",
"Hu .. .fA% .. -DHHh@ ...X %bHxX    9H5 .. @bHHHH",
"Hu .. XgA% .. ;FHx$ X X  $xHHxo  X 8G5  . ObHHHH",
"Hi ... sS*  . %ZB*      @hHHHhXX.. 0H4  . @NHHHH",
"Hd.. . rG;  . @f; XX X OdHGHHy ... uD;  . #VHHHH",
"HkX..  6G9 X...@.     ouHHHHD:  . .hZ$ X. =ZHHHH",
"HmO .. -Ds. ... ...  XeGHHHHgo    #VxO... >FHHHH",
"HZ= .. +nB@ .........9FHHHHV=  X  3Gu ... qHHHHH",
"HG6 . ..uG5 ........5SHHHHC3   XXXdF: ....fHHHHH",
"HHp ... =SzO.....  =BHHHSg=. X   =AxO .  @BHHHHH",
"HHN@  . XdG8 ......O3wr9-........fG6 ... 3GHHHHH",
"HHG5 X.  =ZB% .....      .......8Gjo.....aHHHHHH",
"HHHhX ..X wGj@ .....  ........ 2ZZ- ....%ZHHHHHH",
"HHHD: ..  odHg# .. .......... :mD6 .....yHHHHHHH",
"HHHHgo ... @gHx-   ........ .9CFq......%CHHHHHHH",
"HHHHF6  ... @aGZt%.    .  o;gGS9.......dHHHHHHHH",
"HHHHHB$  ..  oqCHZd6-%$&,0kDGl:...... 6FHHHHHHHH",
"HHHHHHg+ ......%yVGHFSZDGHGv0@...... =VHHHHHHHHH",
"HHHHHHHuX...... .#4ikvbcge,@  ....  %cHHHHHHHHHH",
"HHHHHHHGyX  .. ..  .oOOo.   .... . $jHHHHHHHHHHH",
"HHHHHHHHGuO ..X ...... .........  =xHHHHHHHHHHHH",
"HHHHHHHHHHj%  ................. .5BHHHHHHHHHHHHH",
"HHHHHHHHHHHV9+  . ..........   %iFHHHHHHHHHHHHHH",
"HHHHHHHHHHHHHx6@   ......   X%rVHHHHHHHHHHHHHHHH",
"HHHHHHHHHHHHHHGMi4%Oo....@=9gZHHHHHHHHHHHHHHHHHH",
"HHHHHHHHHHHHHHHHHGCxgsisjnAGHHHHHHHHHHHHHHHHHHHH"
};
