#define 32d4741c6673455b8b8a40f461414ea3_width 48
#define 32d4741c6673455b8b8a40f461414ea3_height 48
static char 32d4741c6673455b8b8a40f461414ea3_bits[] = {
  0x00, 0x00, 0x00, 0x00, 0x00, 0x00, 0x00, 0x00, 0xFC, 0x03, 0x00, 0x00, 
  0x00, 0x80, 0xFF, 0x03, 0x00, 0x00, 0x00, 0xE0, 0xFF, 0x03, 0x00, 0x00, 
  0x00, 0xF8, 0xFF, 0x01, 0x00, 0x00, 0x00, 0xFC, 0xFF, 0x01, 0x00, 0x00, 
  0x00, 0xFE, 0xFF, 0x01, 0x00, 0x00, 0x00, 0xFF, 0x1F, 0x01, 0x00, 0x00, 
  0x80, 0xFF, 0x01, 0x00, 0x00, 0x00, 0xC0, 0x7F, 0xF0, 0x00, 0x00, 0x00, 
  0xE0, 0x3F, 0xFE, 0x01, 0x00, 0x00, 0xE0, 0x9F, 0xFF, 0x00, 0x00, 0x00, 
  0xF0, 0xCF, 0xFF, 0x00, 0x00, 0x00, 0xF0, 0xE7, 0xFF, 0x00, 0x00, 0x00, 
  0xF8, 0xF3, 0xFF, 0x00, 0x00, 0x00, 0xF8, 0xFB, 0xFF, 0x04, 0x00, 0x00, 
  0xF8, 0xF9, 0x07, 0x0E, 0x00, 0x00, 0xFC, 0xFD, 0x03, 0x0F, 0x00, 0x00, 
  0xFC, 0xFC, 0x81, 0x1F, 0x00, 0x00, 0xFC, 0xFC, 0xC0, 0x3F, 0x00, 0x00, 
  0xFC, 0xFE, 0xE0, 0x3F, 0x00, 0x06, 0xFC, 0x7E, 0xE0, 0x1F, 0xE0, 0x07, 
  0x7C, 0x7E, 0xF0, 0xCF, 0xEF, 0x07, 0x7C, 0x7E, 0xF8, 0xC7, 0xEF, 0x07, 
  0x7C, 0x7E, 0xFC, 0xC3, 0xEF, 0x07, 0x7C, 0x7E, 0xFE, 0xC1, 0xEF, 0x07, 
  0xFC, 0x7E, 0xFF, 0xE0, 0xE7, 0x07, 0xFC, 0xFE, 0x7F, 0xE0, 0xE7, 0x07, 
  0xFC, 0xFC, 0x7F, 0xE0, 0xE7, 0x07, 0xFC, 0xFC, 0x3F, 0xF0, 0xE7, 0x07, 
  0xFC, 0xFC, 0x1F, 0xF8, 0xF3, 0x03, 0xF8, 0xF9, 0x0F, 0xFC, 0xF3, 0x03, 
  0xF8, 0xF9, 0xFF, 0xFF, 0xF9, 0x03, 0xF8, 0xF3, 0xFF, 0xFF, 0xF9, 0x01, 
  0xF0, 0xE7, 0xFF, 0xFF, 0xFC, 0x01, 0xF0, 0xC7, 0xFF, 0x7F, 0xFE, 0x01, 
  0xE0, 0x8F, 0xFF, 0x3F, 0xFF, 0x00, 0xE0, 0x1F, 0xFF, 0x8F, 0x7F, 0x00, 
  0xC0, 0x7F, 0xF8, 0xC3, 0x7F, 0x00, 0x80, 0xFF, 0x00, 0xF0, 0x3F, 0x00, 
  0x00, 0xFF, 0x07, 0xFE, 0x1F, 0x00, 0x00, 0xFF, 0xFF, 0xFF, 0x0F, 0x00, 
  0x00, 0xFC, 0xFF, 0xFF, 0x07, 0x00, 0x00, 0xF8, 0xFF, 0xFF, 0x03, 0x00, 
  0x00, 0xF0, 0xFF, 0xFF, 0x00, 0x00, 0x00, 0xC0, 0xFF, 0x7F, 0x00, 0x00, 
  0x00, 0x00, 0xFE, 0x0F, 0x00, 0x00, 0x00, 0x00, 0x00, 0x00, 0x00, 0x00, 
  };
